<svg xmlns="http://www.w3.org/2000/svg" version="1.1" xmlnsXlink="http://www.w3.org/1999/xlink" xmlns:svgjs="http://svgjs.com/svgjs" width="1440" height="560" preserveAspectRatio="none" viewBox="0 0 1440 560"><g mask="url(&quot;#SvgjsMask1008&quot;)" fill="none"><rect width="1440" height="560" x="0" y="0" fill="#0e2a47"></rect><path d="M-109.89 361.55L-109.89 361.55" stroke="#132e65" strokeWidth="1.5"></path><path d="M-109.89 361.55L53.29 379.01" stroke="#132e65" strokeWidth="1.5"></path><path d="M-109.89 361.55L-105.79 533.72" stroke="#132e65" strokeWidth="1.5"></path><path d="M-109.89 361.55L59.23 494.17" stroke="#132e65" strokeWidth="1.5"></path><path d="M-109.89 361.55L-41.77 660.54" stroke="#132e65" strokeWidth="1.5"></path><path d="M-109.89 361.55L216.9 350.19" stroke="#132e65" strokeWidth="1.5"></path><path d="M-109.89 361.55L43.39 667.33" stroke="#132e65" strokeWidth="1.5"></path><path d="M-105.79 533.72L-105.79 533.72" stroke="#132e65" strokeWidth="1.5"></path><path d="M-105.79 533.72L-41.77 660.54" stroke="#132e65" strokeWidth="1.5"></path><path d="M-105.79 533.72L59.23 494.17" stroke="#132e65" strokeWidth="1.5"></path><path d="M-105.79 533.72L43.39 667.33" stroke="#132e65" strokeWidth="1.5"></path><path d="M-41.77 660.54L-41.77 660.54" stroke="#132e65" strokeWidth="1.5"></path><path d="M-41.77 660.54L43.39 667.33" stroke="#132e65" strokeWidth="1.5"></path><path d="M-41.77 660.54L59.23 494.17" stroke="#132e65" strokeWidth="1.5"></path><path d="M-41.77 660.54L212.67 707.51" stroke="#132e65" strokeWidth="1.5"></path><path d="M53.29 379.01L53.29 379.01" stroke="#132e65" strokeWidth="1.5"></path><path d="M53.29 379.01L59.23 494.17" stroke="#132e65" strokeWidth="1.5"></path><path d="M53.29 379.01L216.9 350.19" stroke="#132e65" strokeWidth="1.5"></path><path d="M53.29 379.01L227 491.2" stroke="#132e65" strokeWidth="1.5"></path><path d="M53.29 379.01L-105.79 533.72" stroke="#132e65" strokeWidth="1.5"></path><path d="M59.23 494.17L59.23 494.17" stroke="#132e65" strokeWidth="1.5"></path><path d="M59.23 494.17L227 491.2" stroke="#132e65" strokeWidth="1.5"></path><path d="M59.23 494.17L43.39 667.33" stroke="#132e65" strokeWidth="1.5"></path><path d="M43.39 667.33L43.39 667.33" stroke="#132e65" strokeWidth="1.5"></path><path d="M43.39 667.33L212.67 707.51" stroke="#132e65" strokeWidth="1.5"></path><path d="M216.9 350.19L216.9 350.19" stroke="#132e65" strokeWidth="1.5"></path><path d="M216.9 350.19L227 491.2" stroke="#132e65" strokeWidth="1.5"></path><path d="M216.9 350.19L411.08 362.65" stroke="#132e65" strokeWidth="1.5"></path><path d="M227 491.2L227 491.2" stroke="#132e65" strokeWidth="1.5"></path><path d="M212.67 707.51L212.67 707.51" stroke="#132e65" strokeWidth="1.5"></path><path d="M212.67 707.51L344.95 694.86" stroke="#132e65" strokeWidth="1.5"></path><path d="M212.67 707.51L227 491.2" stroke="#132e65" strokeWidth="1.5"></path><path d="M411.08 362.65L411.08 362.65" stroke="#132e65" strokeWidth="1.5"></path><path d="M411.08 362.65L528.21 358.69" stroke="#132e65" strokeWidth="1.5"></path><path d="M411.08 362.65L410.62 534.44" stroke="#132e65" strokeWidth="1.5"></path><path d="M411.08 362.65L530.5 503.98" stroke="#132e65" strokeWidth="1.5"></path><path d="M411.08 362.65L227 491.2" stroke="#132e65" strokeWidth="1.5"></path><path d="M411.08 362.65L643.65 394.59" stroke="#132e65" strokeWidth="1.5"></path><path d="M410.62 534.44L410.62 534.44" stroke="#132e65" strokeWidth="1.5"></path><path d="M410.62 534.44L530.5 503.98" stroke="#132e65" strokeWidth="1.5"></path><path d="M410.62 534.44L344.95 694.86" stroke="#132e65" strokeWidth="1.5"></path><path d="M344.95 694.86L344.95 694.86" stroke="#132e65" strokeWidth="1.5"></path><path d="M528.21 358.69L528.21 358.69" stroke="#132e65" strokeWidth="1.5"></path><path d="M528.21 358.69L643.65 394.59" stroke="#132e65" strokeWidth="1.5"></path><path d="M530.5 503.98L530.5 503.98" stroke="#132e65" strokeWidth="1.5"></path><path d="M530.5 503.98L654.97 494.79" stroke="#132e65" strokeWidth="1.5"></path><path d="M530.5 503.98L528.21 358.69" stroke="#132e65" strokeWidth="1.5"></path><path d="M530.5 503.98L550.16 657.15" stroke="#132e65" strokeWidth="1.5"></path><path d="M530.5 503.98L643.65 394.59" stroke="#132e65" strokeWidth="1.5"></path><path d="M530.5 503.98L648.24 640.17" stroke="#132e65" strokeWidth="1.5"></path><path d="M550.16 657.15L550.16 657.15" stroke="#132e65" strokeWidth="1.5"></path><path d="M550.16 657.15L648.24 640.17" stroke="#132e65" strokeWidth="1.5"></path><path d="M550.16 657.15L410.62 534.44" stroke="#132e65" strokeWidth="1.5"></path><path d="M643.65 394.59L643.65 394.59" stroke="#132e65" strokeWidth="1.5"></path><path d="M643.65 394.59L654.97 494.79" stroke="#132e65" strokeWidth="1.5"></path><path d="M643.65 394.59L822.17 376.39" stroke="#132e65" strokeWidth="1.5"></path><path d="M654.97 494.79L654.97 494.79" stroke="#132e65" strokeWidth="1.5"></path><path d="M648.24 640.17L648.24 640.17" stroke="#132e65" strokeWidth="1.5"></path><path d="M648.24 640.17L654.97 494.79" stroke="#132e65" strokeWidth="1.5"></path><path d="M648.24 640.17L844.66 659.01" stroke="#132e65" strokeWidth="1.5"></path><path d="M860.87 246.94L860.87 246.94" stroke="#132e65" strokeWidth="1.5"></path><path d="M860.87 246.94L959.69 247.74" stroke="#132e65" strokeWidth="1.5"></path><path d="M860.87 246.94L822.17 376.39" stroke="#132e65" strokeWidth="1.5"></path><path d="M860.87 246.94L974.66 352.45" stroke="#132e65" strokeWidth="1.5"></path><path d="M822.17 376.39L822.17 376.39" stroke="#132e65" strokeWidth="1.5"></path><path d="M822.17 376.39L974.66 352.45" stroke="#132e65" strokeWidth="1.5"></path><path d="M822.17 376.39L959.69 247.74" stroke="#132e65" strokeWidth="1.5"></path><path d="M822.17 376.39L966.72 514.81" stroke="#132e65" strokeWidth="1.5"></path><path d="M844.66 659.01L844.66 659.01" stroke="#132e65" strokeWidth="1.5"></path><path d="M844.66 659.01L955.47 709.57" stroke="#132e65" strokeWidth="1.5"></path><path d="M844.66 659.01L966.72 514.81" stroke="#132e65" strokeWidth="1.5"></path><path d="M954.71 -100.1L954.71 -100.1" stroke="#132e65" strokeWidth="1.5"></path><path d="M954.71 -100.1L988.07 53.09" stroke="#132e65" strokeWidth="1.5"></path><path d="M954.71 -100.1L1127.35 -85.35" stroke="#132e65" strokeWidth="1.5"></path><path d="M954.71 -100.1L1130.37 58.82" stroke="#132e65" strokeWidth="1.5"></path><path d="M988.07 53.09L988.07 53.09" stroke="#132e65" strokeWidth="1.5"></path><path d="M988.07 53.09L1130.37 58.82" stroke="#132e65" strokeWidth="1.5"></path><path d="M988.07 53.09L1127.35 -85.35" stroke="#132e65" strokeWidth="1.5"></path><path d="M988.07 53.09L959.69 247.74" stroke="#132e65" strokeWidth="1.5"></path><path d="M988.07 53.09L860.87 246.94" stroke="#132e65" strokeWidth="1.5"></path><path d="M988.07 53.09L1139.78 262.3" stroke="#132e65" strokeWidth="1.5"></path><path d="M959.69 247.74L959.69 247.74" stroke="#132e65" strokeWidth="1.5"></path><path d="M959.69 247.74L974.66 352.45" stroke="#132e65" strokeWidth="1.5"></path><path d="M959.69 247.74L1139.78 262.3" stroke="#132e65" strokeWidth="1.5"></path><path d="M959.69 247.74L1126.63 342.37" stroke="#132e65" strokeWidth="1.5"></path><path d="M974.66 352.45L974.66 352.45" stroke="#132e65" strokeWidth="1.5"></path><path d="M974.66 352.45L1126.63 342.37" stroke="#132e65" strokeWidth="1.5"></path><path d="M966.72 514.81L966.72 514.81" stroke="#132e65" strokeWidth="1.5"></path><path d="M966.72 514.81L974.66 352.45" stroke="#132e65" strokeWidth="1.5"></path><path d="M955.47 709.57L955.47 709.57" stroke="#132e65" strokeWidth="1.5"></path><path d="M955.47 709.57L966.72 514.81" stroke="#132e65" strokeWidth="1.5"></path><path d="M1127.35 -85.35L1127.35 -85.35" stroke="#132e65" strokeWidth="1.5"></path><path d="M1127.35 -85.35L1130.37 58.82" stroke="#132e65" strokeWidth="1.5"></path><path d="M1130.37 58.82L1130.37 58.82" stroke="#132e65" strokeWidth="1.5"></path><path d="M1130.37 58.82L1274.47 42.77" stroke="#132e65" strokeWidth="1.5"></path><path d="M1130.37 58.82L1286.71 -54.52" stroke="#132e65" strokeWidth="1.5"></path><path d="M1130.37 58.82L1139.78 262.3" stroke="#132e65" strokeWidth="1.5"></path><path d="M1139.78 262.3L1139.78 262.3" stroke="#132e65" strokeWidth="1.5"></path><path d="M1139.78 262.3L1126.63 342.37" stroke="#132e65" strokeWidth="1.5"></path><path d="M1139.78 262.3L1259.52 378.5" stroke="#132e65" strokeWidth="1.5"></path><path d="M1126.63 342.37L1126.63 342.37" stroke="#132e65" strokeWidth="1.5"></path><path d="M1126.63 342.37L1259.52 378.5" stroke="#132e65" strokeWidth="1.5"></path><path d="M1286.71 -54.52L1286.71 -54.52" stroke="#132e65" strokeWidth="1.5"></path><path d="M1286.71 -54.52L1274.47 42.77" stroke="#132e65" strokeWidth="1.5"></path><path d="M1286.71 -54.52L1397.05 40.25" stroke="#132e65" strokeWidth="1.5"></path><path d="M1286.71 -54.52L1433.16 -78.94" stroke="#132e65" strokeWidth="1.5"></path><path d="M1286.71 -54.52L1127.35 -85.35" stroke="#132e65" strokeWidth="1.5"></path><path d="M1286.71 -54.52L1552.57 -75.64" stroke="#132e65" strokeWidth="1.5"></path><path d="M1274.47 42.77L1274.47 42.77" stroke="#132e65" strokeWidth="1.5"></path><path d="M1274.47 42.77L1397.05 40.25" stroke="#132e65" strokeWidth="1.5"></path><path d="M1311.03 240.47L1311.03 240.47" stroke="#132e65" strokeWidth="1.5"></path><path d="M1311.03 240.47L1424.85 198.68" stroke="#132e65" strokeWidth="1.5"></path><path d="M1311.03 240.47L1259.52 378.5" stroke="#132e65" strokeWidth="1.5"></path><path d="M1311.03 240.47L1448.19 338.38" stroke="#132e65" strokeWidth="1.5"></path><path d="M1311.03 240.47L1139.78 262.3" stroke="#132e65" strokeWidth="1.5"></path><path d="M1311.03 240.47L1274.47 42.77" stroke="#132e65" strokeWidth="1.5"></path><path d="M1259.52 378.5L1259.52 378.5" stroke="#132e65" strokeWidth="1.5"></path><path d="M1304.56 524.91L1304.56 524.91" stroke="#132e65" strokeWidth="1.5"></path><path d="M1304.56 524.91L1259.52 378.5" stroke="#132e65" strokeWidth="1.5"></path><path d="M1304.56 524.91L1461.1 554" stroke="#132e65" strokeWidth="1.5"></path><path d="M1249.41 696.59L1249.41 696.59" stroke="#132e65" strokeWidth="1.5"></path><path d="M1249.41 696.59L1411.45 706.69" stroke="#132e65" strokeWidth="1.5"></path><path d="M1249.41 696.59L1304.56 524.91" stroke="#132e65" strokeWidth="1.5"></path><path d="M1433.16 -78.94L1433.16 -78.94" stroke="#132e65" strokeWidth="1.5"></path><path d="M1433.16 -78.94L1552.57 -75.64" stroke="#132e65" strokeWidth="1.5"></path><path d="M1433.16 -78.94L1397.05 40.25" stroke="#132e65" strokeWidth="1.5"></path><path d="M1433.16 -78.94L1274.47 42.77" stroke="#132e65" strokeWidth="1.5"></path><path d="M1433.16 -78.94L1608.52 44.98" stroke="#132e65" strokeWidth="1.5"></path><path d="M1433.16 -78.94L1424.85 198.68" stroke="#132e65" strokeWidth="1.5"></path><path d="M1397.05 40.25L1397.05 40.25" stroke="#132e65" strokeWidth="1.5"></path><path d="M1424.85 198.68L1424.85 198.68" stroke="#132e65" strokeWidth="1.5"></path><path d="M1448.19 338.38L1448.19 338.38" stroke="#132e65" strokeWidth="1.5"></path><path d="M1448.19 338.38L1560.53 395.05" stroke="#132e65" strokeWidth="1.5"></path><path d="M1448.19 338.38L1424.85 198.68" stroke="#132e65" strokeWidth="1.5"></path><path d="M1461.1 554L1461.1 554" stroke="#132e65" strokeWidth="1.5"></path><path d="M1461.1 554L1592.11 550.19" stroke="#132e65" strokeWidth="1.5"></path><path d="M1461.1 554L1549.01 654.78" stroke="#132e65" strokeWidth="1.5"></path><path d="M1461.1 554L1411.45 706.69" stroke="#132e65" strokeWidth="1.5"></path><path d="M1411.45 706.69L1411.45 706.69" stroke="#132e65" strokeWidth="1.5"></path><path d="M1411.45 706.69L1549.01 654.78" stroke="#132e65" strokeWidth="1.5"></path><path d="M1411.45 706.69L1304.56 524.91" stroke="#132e65" strokeWidth="1.5"></path><path d="M1411.45 706.69L1592.11 550.19" stroke="#132e65" strokeWidth="1.5"></path><path d="M1411.45 706.69L1560.53 395.05" stroke="#132e65" strokeWidth="1.5"></path><path d="M1552.57 -75.64L1552.57 -75.64" stroke="#132e65" strokeWidth="1.5"></path><path d="M1552.57 -75.64L1608.52 44.98" stroke="#132e65" strokeWidth="1.5"></path><path d="M1552.57 -75.64L1397.05 40.25" stroke="#132e65" strokeWidth="1.5"></path><path d="M1608.52 44.98L1608.52 44.98" stroke="#132e65" strokeWidth="1.5"></path><path d="M1608.52 44.98L1610.46 252.13" stroke="#132e65" strokeWidth="1.5"></path><path d="M1608.52 44.98L1397.05 40.25" stroke="#132e65" strokeWidth="1.5"></path><path d="M1610.46 252.13L1610.46 252.13" stroke="#132e65" strokeWidth="1.5"></path><path d="M1610.46 252.13L1560.53 395.05" stroke="#132e65" strokeWidth="1.5"></path><path d="M1610.46 252.13L1448.19 338.38" stroke="#132e65" strokeWidth="1.5"></path><path d="M1610.46 252.13L1424.85 198.68" stroke="#132e65" strokeWidth="1.5"></path><path d="M1610.46 252.13L1592.11 550.19" stroke="#132e65" strokeWidth="1.5"></path><path d="M1560.53 395.05L1560.53 395.05" stroke="#132e65" strokeWidth="1.5"></path><path d="M1592.11 550.19L1592.11 550.19" stroke="#132e65" strokeWidth="1.5"></path><path d="M1592.11 550.19L1549.01 654.78" stroke="#132e65" strokeWidth="1.5"></path><path d="M1592.11 550.19L1560.53 395.05" stroke="#132e65" strokeWidth="1.5"></path><path d="M1592.11 550.19L1448.19 338.38" stroke="#132e65" strokeWidth="1.5"></path><path d="M1549.01 654.78L1549.01 654.78" stroke="#132e65" strokeWidth="1.5"></path><circle r="5" cx="-109.89" cy="361.55" fill="#132e65"></circle><circle r="5" cx="-105.79" cy="533.72" fill="#132e65"></circle><circle r="5" cx="-41.77" cy="660.54" fill="#132e65"></circle><circle r="5" cx="53.29" cy="379.01" fill="#132e65"></circle><circle r="5" cx="59.23" cy="494.17" fill="#132e65"></circle><circle r="5" cx="43.39" cy="667.33" fill="#132e65"></circle><circle r="5" cx="216.9" cy="350.19" fill="#132e65"></circle><circle r="5" cx="227" cy="491.2" fill="#132e65"></circle><circle r="5" cx="212.67" cy="707.51" fill="#132e65"></circle><circle r="5" cx="411.08" cy="362.65" fill="#132e65"></circle><circle r="5" cx="410.62" cy="534.44" fill="#132e65"></circle><circle r="5" cx="344.95" cy="694.86" fill="#132e65"></circle><circle r="5" cx="528.21" cy="358.69" fill="#132e65"></circle><circle r="5" cx="530.5" cy="503.98" fill="#132e65"></circle><circle r="5" cx="550.16" cy="657.15" fill="#132e65"></circle><circle r="5" cx="643.65" cy="394.59" fill="#132e65"></circle><circle r="5" cx="654.97" cy="494.79" fill="#132e65"></circle><circle r="5" cx="648.24" cy="640.17" fill="#132e65"></circle><circle r="5" cx="860.87" cy="246.94" fill="#132e65"></circle><circle r="5" cx="822.17" cy="376.39" fill="#132e65"></circle><circle r="5" cx="844.66" cy="659.01" fill="#132e65"></circle><circle r="5" cx="954.71" cy="-100.1" fill="#132e65"></circle><circle r="5" cx="988.07" cy="53.09" fill="#132e65"></circle><circle r="5" cx="959.69" cy="247.74" fill="#132e65"></circle><circle r="5" cx="974.66" cy="352.45" fill="#132e65"></circle><circle r="5" cx="966.72" cy="514.81" fill="#132e65"></circle><circle r="5" cx="955.47" cy="709.57" fill="#132e65"></circle><circle r="5" cx="1127.35" cy="-85.35" fill="#132e65"></circle><circle r="5" cx="1130.37" cy="58.82" fill="#132e65"></circle><circle r="5" cx="1139.78" cy="262.3" fill="#132e65"></circle><circle r="5" cx="1126.63" cy="342.37" fill="#132e65"></circle><circle r="5" cx="1286.71" cy="-54.52" fill="#132e65"></circle><circle r="5" cx="1274.47" cy="42.77" fill="#132e65"></circle><circle r="5" cx="1311.03" cy="240.47" fill="#132e65"></circle><circle r="5" cx="1259.52" cy="378.5" fill="#132e65"></circle><circle r="5" cx="1304.56" cy="524.91" fill="#132e65"></circle><circle r="5" cx="1249.41" cy="696.59" fill="#132e65"></circle><circle r="5" cx="1433.16" cy="-78.94" fill="#132e65"></circle><circle r="5" cx="1397.05" cy="40.25" fill="#132e65"></circle><circle r="5" cx="1424.85" cy="198.68" fill="#132e65"></circle><circle r="5" cx="1448.19" cy="338.38" fill="#132e65"></circle><circle r="5" cx="1461.1" cy="554" fill="#132e65"></circle><circle r="5" cx="1411.45" cy="706.69" fill="#132e65"></circle><circle r="5" cx="1552.57" cy="-75.64" fill="#132e65"></circle><circle r="5" cx="1608.52" cy="44.98" fill="#132e65"></circle><circle r="5" cx="1610.46" cy="252.13" fill="#132e65"></circle><circle r="5" cx="1560.53" cy="395.05" fill="#132e65"></circle><circle r="5" cx="1592.11" cy="550.19" fill="#132e65"></circle><circle r="5" cx="1549.01" cy="654.78" fill="#132e65"></circle><path d="M42.19 658.23L42.19 658.23" stroke="hsl(228.5, 77.2%, 51.5%)" strokeWidth="1.5"></path><path d="M42.19 658.23L-81.8 711.92" stroke="hsl(228.5, 77.2%, 51.5%)" strokeWidth="1.5"></path><path d="M42.19 658.23L37.57 488.2" stroke="hsl(228.5, 77.2%, 51.5%)" strokeWidth="1.5"></path><path d="M42.19 658.23L216.94 699.25" stroke="hsl(228.5, 77.2%, 51.5%)" strokeWidth="1.5"></path><path d="M42.19 658.23L-82.27 520.53" stroke="hsl(228.5, 77.2%, 51.5%)" strokeWidth="1.5"></path><path d="M42.19 658.23L219.68 505.36" stroke="hsl(228.5, 77.2%, 51.5%)" strokeWidth="1.5"></path><path d="M356.95 555.82L356.95 555.82" stroke="hsl(228.5, 77.2%, 51.5%)" strokeWidth="1.5"></path><path d="M356.95 555.82L412.46 680.52" stroke="hsl(228.5, 77.2%, 51.5%)" strokeWidth="1.5"></path><path d="M356.95 555.82L219.68 505.36" stroke="hsl(228.5, 77.2%, 51.5%)" strokeWidth="1.5"></path><path d="M356.95 555.82L503.48 549.14" stroke="hsl(228.5, 77.2%, 51.5%)" strokeWidth="1.5"></path><path d="M356.95 555.82L216.94 699.25" stroke="hsl(228.5, 77.2%, 51.5%)" strokeWidth="1.5"></path><path d="M356.95 555.82L537.24 644.99" stroke="hsl(228.5, 77.2%, 51.5%)" strokeWidth="1.5"></path><path d="M356.95 555.82L496.44 409.01" stroke="hsl(228.5, 77.2%, 51.5%)" strokeWidth="1.5"></path><path d="M639.89 670.04L639.89 670.04" stroke="hsl(228.5, 77.2%, 51.5%)" strokeWidth="1.5"></path><path d="M639.89 670.04L537.24 644.99" stroke="hsl(228.5, 77.2%, 51.5%)" strokeWidth="1.5"></path><path d="M639.89 670.04L503.48 549.14" stroke="hsl(228.5, 77.2%, 51.5%)" strokeWidth="1.5"></path><path d="M844.55 410.74L844.55 410.74" stroke="hsl(228.5, 77.2%, 51.5%)" strokeWidth="1.5"></path><path d="M844.55 410.74L959.31 373.94" stroke="hsl(228.5, 77.2%, 51.5%)" strokeWidth="1.5"></path><path d="M844.55 410.74L689.08 385.92" stroke="hsl(228.5, 77.2%, 51.5%)" strokeWidth="1.5"></path><path d="M844.55 410.74L986.68 542.08" stroke="hsl(228.5, 77.2%, 51.5%)" strokeWidth="1.5"></path><path d="M1011.18 684.63L1011.18 684.63" stroke="hsl(228.5, 77.2%, 51.5%)" strokeWidth="1.5"></path><path d="M1011.18 684.63L1142.34 704.81" stroke="hsl(228.5, 77.2%, 51.5%)" strokeWidth="1.5"></path><path d="M1011.18 684.63L986.68 542.08" stroke="hsl(228.5, 77.2%, 51.5%)" strokeWidth="1.5"></path><path d="M1011.18 684.63L1096.07 544.63" stroke="hsl(228.5, 77.2%, 51.5%)" strokeWidth="1.5"></path><path d="M1011.18 684.63L845.12 683.78" stroke="hsl(228.5, 77.2%, 51.5%)" strokeWidth="1.5"></path><path d="M1011.18 684.63L1250.86 657.96" stroke="hsl(228.5, 77.2%, 51.5%)" strokeWidth="1.5"></path><path d="M1115.27 338.3L1115.27 338.3" stroke="hsl(228.5, 77.2%, 51.5%)" strokeWidth="1.5"></path><path d="M1115.27 338.3L1124.77 228.39" stroke="hsl(228.5, 77.2%, 51.5%)" strokeWidth="1.5"></path><path d="M1115.27 338.3L959.31 373.94" stroke="hsl(228.5, 77.2%, 51.5%)" strokeWidth="1.5"></path><path d="M1115.27 338.3L1282.88 337.72" stroke="hsl(228.5, 77.2%, 51.5%)" strokeWidth="1.5"></path><path d="M1142.34 704.81L1142.34 704.81" stroke="hsl(228.5, 77.2%, 51.5%)" strokeWidth="1.5"></path><path d="M1142.34 704.81L1250.86 657.96" stroke="hsl(228.5, 77.2%, 51.5%)" strokeWidth="1.5"></path><path d="M1142.34 704.81L1096.07 544.63" stroke="hsl(228.5, 77.2%, 51.5%)" strokeWidth="1.5"></path><path d="M1142.34 704.81L986.68 542.08" stroke="hsl(228.5, 77.2%, 51.5%)" strokeWidth="1.5"></path><path d="M1142.34 704.81L1304.05 516.27" stroke="hsl(228.5, 77.2%, 51.5%)" strokeWidth="1.5"></path><path d="M1142.34 704.81L845.12 683.78" stroke="hsl(228.5, 77.2%, 51.5%)" strokeWidth="1.5"></path><path d="M1286.39 83.94L1286.39 83.94" stroke="hsl(228.5, 77.2%, 51.5%)" strokeWidth="1.5"></path><path d="M1286.39 83.94L1308.83 -37.76" stroke="hsl(228.5, 77.2%, 51.5%)" strokeWidth="1.5"></path><path d="M1286.39 83.94L1439.2 61.33" stroke="hsl(228.5, 77.2%, 51.5%)" strokeWidth="1.5"></path><path d="M1392.16 -43.96L1392.16 -43.96" stroke="hsl(228.5, 77.2%, 51.5%)" strokeWidth="1.5"></path><path d="M1392.16 -43.96L1308.83 -37.76" stroke="hsl(228.5, 77.2%, 51.5%)" strokeWidth="1.5"></path><path d="M1392.16 -43.96L1439.2 61.33" stroke="hsl(228.5, 77.2%, 51.5%)" strokeWidth="1.5"></path><path d="M1392.16 -43.96L1544.53 -105.76" stroke="hsl(228.5, 77.2%, 51.5%)" strokeWidth="1.5"></path><path d="M1392.16 -43.96L1286.39 83.94" stroke="hsl(228.5, 77.2%, 51.5%)" strokeWidth="1.5"></path><path d="M1392.16 -43.96L1556.4 92.5" stroke="hsl(228.5, 77.2%, 51.5%)" strokeWidth="1.5"></path><path d="M1392.16 -43.96L1406.5 228.07" stroke="hsl(228.5, 77.2%, 51.5%)" strokeWidth="1.5"></path><path d="M1442.42 638.25L1442.42 638.25" stroke="hsl(228.5, 77.2%, 51.5%)" strokeWidth="1.5"></path><path d="M1442.42 638.25L1403.61 511.81" stroke="hsl(228.5, 77.2%, 51.5%)" strokeWidth="1.5"></path><path d="M1442.42 638.25L1567.59 554.92" stroke="hsl(228.5, 77.2%, 51.5%)" strokeWidth="1.5"></path><path d="M1563.33 214.36L1563.33 214.36" stroke="hsl(228.5, 77.2%, 51.5%)" strokeWidth="1.5"></path><path d="M1563.33 214.36L1556.4 92.5" stroke="hsl(228.5, 77.2%, 51.5%)" strokeWidth="1.5"></path><path d="M1563.33 214.36L1406.5 228.07" stroke="hsl(228.5, 77.2%, 51.5%)" strokeWidth="1.5"></path><path d="M-82.27 520.53L-82.27 520.53" stroke="hsl(228.5, 77.2%, 51.5%)" strokeWidth="1.5"></path><path d="M-82.27 520.53L37.57 488.2" stroke="hsl(228.5, 77.2%, 51.5%)" strokeWidth="1.5"></path><path d="M-82.27 520.53L-81.8 711.92" stroke="hsl(228.5, 77.2%, 51.5%)" strokeWidth="1.5"></path><path d="M-81.8 711.92L-81.8 711.92" stroke="hsl(228.5, 77.2%, 51.5%)" strokeWidth="1.5"></path><path d="M-81.8 711.92L37.57 488.2" stroke="hsl(228.5, 77.2%, 51.5%)" strokeWidth="1.5"></path><path d="M-81.8 711.92L216.94 699.25" stroke="hsl(228.5, 77.2%, 51.5%)" strokeWidth="1.5"></path><path d="M-81.8 711.92L219.68 505.36" stroke="hsl(228.5, 77.2%, 51.5%)" strokeWidth="1.5"></path><path d="M37.57 488.2L37.57 488.2" stroke="hsl(228.5, 77.2%, 51.5%)" strokeWidth="1.5"></path><path d="M37.57 488.2L219.68 505.36" stroke="hsl(228.5, 77.2%, 51.5%)" strokeWidth="1.5"></path><path d="M37.57 488.2L216.94 699.25" stroke="hsl(228.5, 77.2%, 51.5%)" strokeWidth="1.5"></path><path d="M37.57 488.2L356.95 555.82" stroke="hsl(228.5, 77.2%, 51.5%)" strokeWidth="1.5"></path><path d="M219.68 505.36L219.68 505.36" stroke="hsl(228.5, 77.2%, 51.5%)" strokeWidth="1.5"></path><path d="M219.68 505.36L216.94 699.25" stroke="hsl(228.5, 77.2%, 51.5%)" strokeWidth="1.5"></path><path d="M216.94 699.25L216.94 699.25" stroke="hsl(228.5, 77.2%, 51.5%)" strokeWidth="1.5"></path><path d="M412.46 680.52L412.46 680.52" stroke="hsl(228.5, 77.2%, 51.5%)" strokeWidth="1.5"></path><path d="M412.46 680.52L537.24 644.99" stroke="hsl(228.5, 77.2%, 51.5%)" strokeWidth="1.5"></path><path d="M496.44 409.01L496.44 409.01" stroke="hsl(228.5, 77.2%, 51.5%)" strokeWidth="1.5"></path><path d="M496.44 409.01L503.48 549.14" stroke="hsl(228.5, 77.2%, 51.5%)" strokeWidth="1.5"></path><path d="M496.44 409.01L689.08 385.92" stroke="hsl(228.5, 77.2%, 51.5%)" strokeWidth="1.5"></path><path d="M496.44 409.01L537.24 644.99" stroke="hsl(228.5, 77.2%, 51.5%)" strokeWidth="1.5"></path><path d="M496.44 409.01L412.46 680.52" stroke="hsl(228.5, 77.2%, 51.5%)" strokeWidth="1.5"></path><path d="M496.44 409.01L219.68 505.36" stroke="hsl(228.5, 77.2%, 51.5%)" strokeWidth="1.5"></path><path d="M503.48 549.14L503.48 549.14" stroke="hsl(228.5, 77.2%, 51.5%)" strokeWidth="1.5"></path><path d="M503.48 549.14L537.24 644.99" stroke="hsl(228.5, 77.2%, 51.5%)" strokeWidth="1.5"></path><path d="M537.24 644.99L537.24 644.99" stroke="hsl(228.5, 77.2%, 51.5%)" strokeWidth="1.5"></path><path d="M537.24 644.99L689.08 385.92" stroke="hsl(228.5, 77.2%, 51.5%)" strokeWidth="1.5"></path><path d="M689.08 385.92L689.08 385.92" stroke="hsl(228.5, 77.2%, 51.5%)" strokeWidth="1.5"></path><path d="M845.12 683.78L845.12 683.78" stroke="hsl(228.5, 77.2%, 51.5%)" strokeWidth="1.5"></path><path d="M845.12 683.78L986.68 542.08" stroke="hsl(228.5, 77.2%, 51.5%)" strokeWidth="1.5"></path><path d="M959.31 373.94L959.31 373.94" stroke="hsl(228.5, 77.2%, 51.5%)" strokeWidth="1.5"></path><path d="M986.68 542.08L986.68 542.08" stroke="hsl(228.5, 77.2%, 51.5%)" strokeWidth="1.5"></path><path d="M986.68 542.08L1096.07 544.63" stroke="hsl(228.5, 77.2%, 51.5%)" strokeWidth="1.5"></path><path d="M986.68 542.08L959.31 373.94" stroke="hsl(228.5, 77.2%, 51.5%)" strokeWidth="1.5"></path><path d="M1124.77 228.39L1124.77 228.39" stroke="hsl(228.5, 77.2%, 51.5%)" strokeWidth="1.5"></path><path d="M1124.77 228.39L1264.88 240.23" stroke="hsl(228.5, 77.2%, 51.5%)" strokeWidth="1.5"></path><path d="M1124.77 228.39L1282.88 337.72" stroke="hsl(228.5, 77.2%, 51.5%)" strokeWidth="1.5"></path><path d="M1096.07 544.63L1096.07 544.63" stroke="hsl(228.5, 77.2%, 51.5%)" strokeWidth="1.5"></path><path d="M1308.83 -37.76L1308.83 -37.76" stroke="hsl(228.5, 77.2%, 51.5%)" strokeWidth="1.5"></path><path d="M1264.88 240.23L1264.88 240.23" stroke="hsl(228.5, 77.2%, 51.5%)" strokeWidth="1.5"></path><path d="M1264.88 240.23L1282.88 337.72" stroke="hsl(228.5, 77.2%, 51.5%)" strokeWidth="1.5"></path><path d="M1282.88 337.72L1282.88 337.72" stroke="hsl(228.5, 77.2%, 51.5%)" strokeWidth="1.5"></path><path d="M1282.88 337.72L1430.36 345.07" stroke="hsl(228.5, 77.2%, 51.5%)" strokeWidth="1.5"></path><path d="M1304.05 516.27L1304.05 516.27" stroke="hsl(228.5, 77.2%, 51.5%)" strokeWidth="1.5"></path><path d="M1304.05 516.27L1403.61 511.81" stroke="hsl(228.5, 77.2%, 51.5%)" strokeWidth="1.5"></path><path d="M1304.05 516.27L1250.86 657.96" stroke="hsl(228.5, 77.2%, 51.5%)" strokeWidth="1.5"></path><path d="M1304.05 516.27L1282.88 337.72" stroke="hsl(228.5, 77.2%, 51.5%)" strokeWidth="1.5"></path><path d="M1250.86 657.96L1250.86 657.96" stroke="hsl(228.5, 77.2%, 51.5%)" strokeWidth="1.5"></path><path d="M1439.2 61.33L1439.2 61.33" stroke="hsl(228.5, 77.2%, 51.5%)" strokeWidth="1.5"></path><path d="M1406.5 228.07L1406.5 228.07" stroke="hsl(228.5, 77.2%, 51.5%)" strokeWidth="1.5"></path><path d="M1406.5 228.07L1430.36 345.07" stroke="hsl(228.5, 77.2%, 51.5%)" strokeWidth="1.5"></path><path d="M1406.5 228.07L1264.88 240.23" stroke="hsl(228.5, 77.2%, 51.5%)" strokeWidth="1.5"></path><path d="M1430.36 345.07L1430.36 345.07" stroke="hsl(228.5, 77.2%, 51.5%)" strokeWidth="1.5"></path><path d="M1430.36 345.07L1403.61 511.81" stroke="hsl(228.5, 77.2%, 51.5%)" strokeWidth="1.5"></path><path d="M1403.61 511.81L1403.61 511.81" stroke="hsl(228.5, 77.2%, 51.5%)" strokeWidth="1.5"></path><path d="M1403.61 511.81L1567.59 554.92" stroke="hsl(228.5, 77.2%, 51.5%)" strokeWidth="1.5"></path><path d="M1544.53 -105.76L1544.53 -105.76" stroke="hsl(228.5, 77.2%, 51.5%)" strokeWidth="1.5"></path><path d="M1544.53 -105.76L1439.2 61.33" stroke="hsl(228.5, 77.2%, 51.5%)" strokeWidth="1.5"></path><path d="M1544.53 -105.76L1556.4 92.5" stroke="hsl(228.5, 77.2%, 51.5%)" strokeWidth="1.5"></path><path d="M1556.4 92.5L1556.4 92.5" stroke="hsl(228.5, 77.2%, 51.5%)" strokeWidth="1.5"></path><path d="M1556.4 92.5L1439.2 61.33" stroke="hsl(228.5, 77.2%, 51.5%)" strokeWidth="1.5"></path><path d="M1556.4 92.5L1406.5 228.07" stroke="hsl(228.5, 77.2%, 51.5%)" strokeWidth="1.5"></path><path d="M1567.59 554.92L1567.59 554.92" stroke="hsl(228.5, 77.2%, 51.5%)" strokeWidth="1.5"></path><path d="M1567.59 554.92L1595.4 676.11" stroke="hsl(228.5, 77.2%, 51.5%)" strokeWidth="1.5"></path><path d="M1595.4 676.11L1595.4 676.11" stroke="hsl(228.5, 77.2%, 51.5%)" strokeWidth="1.5"></path><path d="M1595.4 676.11L1442.42 638.25" stroke="hsl(228.5, 77.2%, 51.5%)" strokeWidth="1.5"></path><path d="M1595.4 676.11L1403.61 511.81" stroke="hsl(228.5, 77.2%, 51.5%)" strokeWidth="1.5"></path><path d="M1595.4 676.11L1304.05 516.27" stroke="hsl(228.5, 77.2%, 51.5%)" strokeWidth="1.5"></path><circle r="25" cx="42.19" cy="658.23" fill="url(#SvgjsRadialGradient1009)"></circle><circle r="25" cx="356.95" cy="555.82" fill="url(#SvgjsRadialGradient1009)"></circle><circle r="25" cx="639.89" cy="670.04" fill="url(#SvgjsRadialGradient1009)"></circle><circle r="25" cx="844.55" cy="410.74" fill="url(#SvgjsRadialGradient1009)"></circle><circle r="25" cx="1011.18" cy="684.63" fill="url(#SvgjsRadialGradient1009)"></circle><circle r="25" cx="1115.27" cy="338.3" fill="url(#SvgjsRadialGradient1009)"></circle><circle r="25" cx="1142.34" cy="704.81" fill="url(#SvgjsRadialGradient1009)"></circle><circle r="25" cx="1286.39" cy="83.94" fill="url(#SvgjsRadialGradient1009)"></circle><circle r="25" cx="1392.16" cy="-43.96" fill="url(#SvgjsRadialGradient1009)"></circle><circle r="25" cx="1442.42" cy="638.25" fill="url(#SvgjsRadialGradient1009)"></circle><circle r="25" cx="1563.33" cy="214.36" fill="url(#SvgjsRadialGradient1009)"></circle><circle r="5" cx="-82.27" cy="520.53" fill="#8b9ad9"></circle><circle r="5" cx="-81.8" cy="711.92" fill="#8b9ad9"></circle><circle r="5" cx="37.57" cy="488.2" fill="#8b9ad9"></circle><circle r="5" cx="219.68" cy="505.36" fill="#8b9ad9"></circle><circle r="5" cx="216.94" cy="699.25" fill="#8b9ad9"></circle><circle r="5" cx="412.46" cy="680.52" fill="#8b9ad9"></circle><circle r="5" cx="496.44" cy="409.01" fill="#8b9ad9"></circle><circle r="5" cx="503.48" cy="549.14" fill="#8b9ad9"></circle><circle r="5" cx="537.24" cy="644.99" fill="#8b9ad9"></circle><circle r="5" cx="689.08" cy="385.92" fill="#8b9ad9"></circle><circle r="5" cx="845.12" cy="683.78" fill="#8b9ad9"></circle><circle r="5" cx="959.31" cy="373.94" fill="#8b9ad9"></circle><circle r="5" cx="986.68" cy="542.08" fill="#8b9ad9"></circle><circle r="5" cx="1124.77" cy="228.39" fill="#8b9ad9"></circle><circle r="5" cx="1096.07" cy="544.63" fill="#8b9ad9"></circle><circle r="5" cx="1308.83" cy="-37.76" fill="#8b9ad9"></circle><circle r="5" cx="1264.88" cy="240.23" fill="#8b9ad9"></circle><circle r="5" cx="1282.88" cy="337.72" fill="#8b9ad9"></circle><circle r="5" cx="1304.05" cy="516.27" fill="#8b9ad9"></circle><circle r="5" cx="1250.86" cy="657.96" fill="#8b9ad9"></circle><circle r="5" cx="1439.2" cy="61.33" fill="#8b9ad9"></circle><circle r="5" cx="1406.5" cy="228.07" fill="#8b9ad9"></circle><circle r="5" cx="1430.36" cy="345.07" fill="#8b9ad9"></circle><circle r="5" cx="1403.61" cy="511.81" fill="#8b9ad9"></circle><circle r="5" cx="1544.53" cy="-105.76" fill="#8b9ad9"></circle><circle r="5" cx="1556.4" cy="92.5" fill="#8b9ad9"></circle><circle r="5" cx="1567.59" cy="554.92" fill="#8b9ad9"></circle><circle r="5" cx="1595.4" cy="676.11" fill="#8b9ad9"></circle></g><defs><mask id="SvgjsMask1008"><rect width="1440" height="560" fill="#ffffff"></rect></mask><radialGradient id="SvgjsRadialGradient1009"><stop stop-color="#ffffff" offset="0.1"></stop><stop stop-color="#1735b3" offset="0.2"></stop><stop stop-color="rgba(23, 53, 179, 0)" offset="1"></stop></radialGradient></defs></svg>